<svg xmlns:xlink="http://www.w3.org/1999/xlink" xmlns="http://www.w3.org/2000/svg" alt="icon icon-sm" aria-label="Illustration that shows a man creating a crypto wallet while walking" width="180"  height="180" ><defs><symbol viewBox="0 0 180 180" fill="none" xmlns="http://www.w3.org/2000/svg" id="wallet">
    <g clip-path="url(#clip0)">
      <path fill-rule="evenodd" clip-rule="evenodd" d="M174.121 121.494h2.433V13.758h-2.433v107.736z" fill="#D7EBFF"></path>
      <path fill-rule="evenodd" clip-rule="evenodd" d="M149.124 16.5l-19.253-6.352a1.537 1.537 0 0 1-.978-1.938l.961-2.884a1.547 1.547 0 0 1 1.947-.973l19.253 6.352a1.536 1.536 0 0 1 .978 1.938l-.961 2.884a1.546 1.546 0 0 1-1.947.973z" fill="#ECF6FF"></path>
      <path fill-rule="evenodd" clip-rule="evenodd" d="M170.676 161.437h9.325v-35.706h-9.325v35.706z" fill="#CCE3FF"></path>
      <path fill-rule="evenodd" clip-rule="evenodd" d="M172.651 132.39h5.373v-12.217h-5.373v12.217zm.452-116.056h4.471v-5.18h-4.471v5.18z" fill="#CCE3FF"></path>
      <path d="M142.598 7.967s32.741 7.205 32.741 24.718" stroke="#DCEEFF" stroke-width="2.223" stroke-linejoin="bevel"></path>
      <path fill-rule="evenodd" clip-rule="evenodd" d="M151.274 14.552l-21.107-6.964c-1.889-.623-2.922-2.671-2.296-4.551l.19-.57c.626-1.88 2.684-2.908 4.573-2.285l21.107 6.964c1.889.623 2.922 2.671 2.296 4.552l-.19.569c-.626 1.88-2.684 2.908-4.573 2.285z" fill="#CCE3FF"></path>
      <path fill-rule="evenodd" clip-rule="evenodd" d="M166.744 130.362c0 12.312-8.082 17.837-18.012 17.837-9.929 0-18.011-5.525-18.011-17.837 0-22.935 9.829-44.353 18.011-44.353 8.182 0 18.012 21.418 18.012 44.353z" fill="#ECF6FF"></path>
      <path d="M148.733 110.428v47.991m.329-18.3l6.688-6.654m-6.799-14.753l4.157-4.135m-4.595 15.825l-6.166-6.134" stroke="#CCE3FF" stroke-width=".854" stroke-linecap="square"></path>
      <path fill-rule="evenodd" clip-rule="evenodd" d="M52.313 75.98c0 14.313-11.71 25.917-26.156 25.917C11.711 101.897.001 90.293.001 75.98c0-14.314 11.71-25.918 26.156-25.918 14.446 0 26.156 11.604 26.156 25.918z" fill="#ECF6FF"></path>
      <path d="M26.157 68.49v53.01m0-28.431l5.823-5.77M26.377 75.75l2.998-2.97m-3.218 11.681l-5.58-5.53" stroke="#B6D4FF" stroke-width=".854"></path>
      <path fill-rule="evenodd" clip-rule="evenodd" d="M130.245 82.69c0 12.47-8.165 19.426-18.8 19.426-10.635 0-18.8-6.957-18.8-19.427 0-26.255 12-56.523 18.8-56.523 6.801 0 18.8 30.268 18.8 56.523z" fill="#CCE3FF"></path>
      <path d="M111.445 64.14v57.557m.225-27.066L118.324 88m-7.436-6.005l-5.445-5.427m6.329-3.074l4.157-4.143" stroke="#ECF6FF" stroke-width=".854" stroke-linecap="square"></path>
      <g fill-rule="evenodd" clip-rule="evenodd">
        <path d="M90.076 133.578l5.143 23.913h3.402l-5.143-23.913h-3.402z" fill="#CCE3FF"></path>
        <path d="M7.397 133.578h88.06v-3.699H7.397v3.699zm69.387 13.396h17.169v-3.699H76.784v3.699z" fill="#D7EBFF"></path>
        <path d="M25.592 109.234l-3.86 20.645h4.658l3.86-20.645h-4.658zm67.126 0l-3.86 20.645h4.658l3.859-20.645h-4.657z" fill="#CCE3FF"></path>
        <path d="M74.807 133.578h20.65v-3.699h-20.65v3.699z" fill="#B6D4FF"></path>
        <path d="M102.02 122.692l-.69 3.7h-4.658l.692-3.7h4.656z" fill="#CCE3FF"></path>
        <path d="M97.364 122.692l-.692 3.7H18.295l.692-3.7h78.377z" fill="#D7EBFF"></path>
        <path d="M103.278 115.963l-.69 3.698H97.93l.691-3.698h4.657z" fill="#CCE3FF"></path>
        <path d="M98.621 115.963l-.691 3.698H19.553l.691-3.698h78.377z" fill="#D7EBFF"></path>
        <path d="M99.879 109.234l-.69 3.699h4.656l.691-3.699h-4.657z" fill="#CCE3FF"></path>
        <path d="M21.503 109.234l-.692 3.699H99.19l.69-3.699H21.503z" fill="#D7EBFF"></path>
        <path d="M76.785 133.578l-5.142 23.913h3.402l5.142-23.913h-3.402zm-54.079 0l5.143 23.913h3.402l-5.143-23.913h-3.402z" fill="#CCE3FF"></path>
        <path d="M9.415 146.974h17.169v-3.699H9.415v3.699z" fill="#D7EBFF"></path>
        <path d="M9.415 133.578l-5.143 23.913h3.403l5.142-23.913H9.415z" fill="#CCE3FF"></path>
      </g>
      <g clip-path="url(#clip1)">
        <path fill-rule="evenodd" clip-rule="evenodd" d="M99.804 41.695s4.365 5.69-1.562 7.2l1.562-7.2z" fill="#19141E"></path>
        <path d="M91.67 61.253l-.145-5.017s6.247.486 7.551-.192c0 0 .991-6.096.05-10.418l-5.13-4.633-8.28.61-.94 7.494c-.433-1.278-4.376-2.88-5.323-.013-1.22 3.698 5.815 5.64 5.815 5.64l-.735 6.59" fill="#F6B852"></path>
        <path d="M81.907 41.317L79.88 39.25l1.107-1.08 1.851 1.886.18-.086-.477-2.658 1.525-.273.382 2.13c3.693-2.254 6.61-.497 6.61-.497s1.176-4.937 4.434-4.923c4.641.02 5.358 7.192 5.358 7.192s2.339-3.9 3.669-3.343c1.33.558 1.367 13.513-17.1 7.2 0 0 1.588 3.572-2.643 4.298 0 0-.738-1.525-3.238-1.611 0 0-3.846-1.565.37-6.17z" fill="#2F2F3D"></path>
        <path opacity=".4" fill-rule="evenodd" clip-rule="evenodd" d="M91.525 56.237l-4.11-.882 4.09 2.765.02-1.883z" fill="#000"></path>
        <path fill-rule="evenodd" clip-rule="evenodd" d="M94.994 48.688l1.42 3.473-1.702.022.282-3.495zm-1.698.337a.86.86 0 1 1-1.693.307.86.86 0 0 1 1.693-.307zm4.467 0a.86.86 0 1 1-1.693.307.86.86 0 0 1 1.693-.307z" fill="#0D0B6D"></path>
        <path fill-rule="evenodd" clip-rule="evenodd" d="M92.793 52.73s.547.994 1.728.97z" fill="#fff"></path>
        <path d="M92.793 52.73s.547.994 1.728.97" stroke="#0D0B6D" stroke-width=".779"></path>
        <path d="M109.907 169.059l1.199 3.855s9.365-3.833 14.182-2.378l-16.233 9.378-4.226-10.588 5.078-.267zm-48.882-14.797l-5.472 4.553s.628 3.228.814 6.254c.27 4.38-.208 8.3-.208 8.3l-8.346-16.254 11.619-7.79 1.593 4.937z" fill="#3375BB"></path>
        <path d="M104.753 169.305l4.848-1.308 1.505 4.917-4.155 1.728-2.198-5.337zm-45.397-19.988l.289 6.106-4.092 3.392-2.889-4.922 6.692-4.576z" fill="#F6B852"></path>
        <path d="M80.38 109.172c-1.339-4.399-2.284-7.674-2.595-9.105-1.381-6.359-1.378-9.398-1.378-9.63h22.828c-.098 1.702.187 6.213-.456 12.459l14.008 62.317 1.413-.246 1.23 4.844-15.322 3.049-1.866-5.118.915-.159c-2.045-6.139-6.51-19.766-10.844-33.247a77.708 77.708 0 0 1-1.704 2.702c-8.074 12.246-16.133 19.332-20.548 22.66l.652.931-4.429 2.81-9.74-13.82 4.298-3.07.724 1.033c5.242-4.808 15.712-16.114 21.884-34.278.414-1.216.712-2.617.93-4.132z" fill="#19141E"></path>
        <path fill-rule="evenodd" clip-rule="evenodd" d="M99.157 167.583c-4.386-13.167-19.91-60.783-21.371-67.516-1.382-6.36-1.379-9.398-1.379-9.63H95.98l16.808 74.776 1.413-.246 1.23 4.844-15.321 3.049-1.867-5.118.915-.159z" fill="#fff" fill-opacity=".1"></path>
        <path d="M114.806 71.408c-1.9 3.72-8.568 15.93-13.322 13.983-3.56-1.459-7.82-13.549-7.82-13.549l6.926-4.11 3.112 8.308 6.355-6.886c-.216-1.364-.389-3.147.042-3.776.732-1.07 4.437-4.367 4.437-4.367l.675 5.586.118-.47a.218.218 0 0 1 .023-.095l.273-1.09c-.114-.058-.161-.14-.112-.254a.929.929 0 0 1 .251-.3l.931-3.721s.306.135.754.339c.72-.149 3.33 1.62 3.37 1.648.532.342-.732 6-1.759 7.051-.73.748-3.003 1.393-4.254 1.703zM72.373 96.637l.425.803s.384.656.786 1.802c.401 1.145.235 1.846 1.104 3.645.987 2.042-.778 1.2-1.411.309-.495-.696-.439-1.637-1.08-2.058-.214.342-.704.83-.978 3.777-.049.528.191 2.243.191 2.243.005.513.072 1.584-.515 1.748-.145.04-.334-.12-.334-.12s.056.671-.543.804c-.235.052-.703-1.395-.703-1.395s-.072.735-.519.817c-.127.023-1.62-4.17-1.62-4.17l.09.947.198.97s-.016.522-.436.614c-.168.037-.488-.834-.788-1.858-.467-1.595-.458-2.793-.32-3.984.165-1.439.092-1.923.734-3.688.077-.212.18-.454.295-.703-.352-3.035-1.346-11.92-1.224-14.646.148-3.308 3.662-10.652 3.662-10.652l7.135 3.978-3.933 7.146-.216 13.67zm17.07-32.907c-4.133-.242-5.876-2.803-6.274-3.496 2.622-.18 2.896-.154 6.389.206 1.416.147 2.41.447 3.372.71.208.705.504 2.812-3.487 2.58z" fill="#F6B852"></path>
        <mask id="a" maskUnits="userSpaceOnUse" x="68" y="60" width="37" height="31">
          <path d="M101.214 67.645l.024-.004 2.815 6.453-4.017 2.336-.84 14.09h-22.89l-.383-13.896-7.237-5.397s3.413-6.826 9.253-9.543c1.888-.879 3.62-1.293 5.23-1.452.132-.013.028-.01.044.053.01.035.041.088.078.147.037.06.037.04.219.307.18.267.45.533.855.945.336.342.8.677 1.256.931.519.29 1.028.482 1.354.62.295.123.544.188.784.245.679.16 1.207.21 2.285.266.13.007.888-.049 1.021-.075.19-.038.36-.072.575-.13a2.454 2.454 0 0 0 1.102-.745c.15-.186.293-.796.249-1.246-.044-.45-.24-.45-.06-.402 3.16.859 6.149 2.628 7.896 5.767.141.252.269.496.387.73z" fill="#EF6E45"></path>
        </mask>
        <g mask="url(#a)">
          <path d="M101.214 67.645l.024-.004 2.815 6.453-4.017 2.336-.84 14.09h-22.89l-.383-13.896-7.237-5.397s3.413-6.826 9.253-9.543c1.888-.879 3.62-1.293 5.23-1.452.132-.013.028-.01.044.053.01.035.041.088.078.147.037.06.037.04.219.307.18.267.45.533.855.945.336.342.8.677 1.256.931.519.29 1.028.482 1.354.62.295.123.544.188.784.245.679.16 1.207.21 2.285.266.13.007.888-.049 1.021-.075.19-.038.36-.072.575-.13a2.454 2.454 0 0 0 1.102-.745c.15-.186.293-.796.249-1.246-.044-.45-.24-.45-.06-.402 3.16.859 6.149 2.628 7.896 5.767.141.252.269.496.387.73z" fill="#3375BB"></path>
        </g>
        <path opacity=".201" d="M75.923 76.625l1.836 1.239 4.413-5.11" stroke="#000" stroke-width=".974"></path>
        <path d="M117.837 67.59l-.319 1.561h-5.179l2.443-12.421h5.179l-.949 4.823-1.018-.47-.317-.087-.25.014-.108.073v.302l1.107 1.583-.847.367-1.303.68-.377.26-.145.134-.12.106-.075.09-.046.082-.02.106.02.047.023.036.033.033.427.15.974-.266h.963l-1.286.266-.846.504-.288.27-.163.198v.18l.284.128 1.793-.205-.594.322-.393.242-.361.185-.278.358v.177l.098.103.251.133h1.15l.537-.063z" fill="#3375BB"></path>
        <path fill-rule="evenodd" clip-rule="evenodd" d="M112.338 69.151h-.857l2.443-12.421h.857l-2.443 12.421z" fill="#302B34"></path>
        <path fill-rule="evenodd" clip-rule="evenodd" d="M115.673 58.172c-.072.363-.284.628-.475.59-.19-.036-.286-.36-.214-.723.071-.363.284-.627.474-.59.19.037.286.36.215.724z" fill="#020101"></path>
      </g>
    </g>
    <defs>
      <clipPath id="clip0">
        <path fill="#fff" d="M.001 0h180v180h-180z"></path>
      </clipPath>
      <clipPath id="clip1">
        <path fill="#fff" d="M47.813 33.75h77.625V180H47.813z"></path>
      </clipPath>
    </defs>
  </symbol></defs>
<use xlink:href="#wallet" alt="Illustration that shows a man creating a crypto wallet while walking"></use>
</svg>