<svg xmlns:xlink="http://www.w3.org/1999/xlink" xmlns="http://www.w3.org/2000/svg" alt="icon icon-sm" aria-label="Illustration that shows a man sitting on a bench downloading a wallet" width="180"  height="180" ><defs><symbol viewBox="0 0 180 180" fill="none" xmlns="http://www.w3.org/2000/svg" id="download">
    <path fill-rule="evenodd" clip-rule="evenodd" d="M69.427 45.877c0 19.154-15.542 34.681-34.714 34.681C15.542 80.558 0 65.031 0 45.878c0-19.154 15.542-34.681 34.713-34.681 19.172 0 34.714 15.527 34.714 34.68z" fill="#ECF6FF"></path>
    <path d="M34.714 35.855v70.935m0-38.045l7.727-7.72m-7.435-15.454l3.979-3.975m-4.271 15.631l-7.406-7.4" stroke="#B6D4FF" stroke-width="1.043"></path>
    <path fill-rule="evenodd" clip-rule="evenodd" d="M180 75.811c0 16.726-10.904 26.056-25.106 26.056-14.203 0-25.107-9.33-25.107-26.056C129.787 40.597 145.812 0 154.894 0S180 40.597 180 75.811z" fill="#CCE3FF"></path>
    <path d="M154.894 50.934v77.197m.299-36.302l8.886-8.895m-9.929-8.054l-7.271-7.278m8.453-4.123l5.551-5.557" stroke="#ECF6FF" stroke-width="1.043" stroke-linecap="square"></path>
    <g fill-rule="evenodd" clip-rule="evenodd">
      <path d="M35.58 137.998l-7.86 36.701h-5.198l7.859-36.701h5.2z" fill="#CCE3FF"></path>
      <path d="M161.932 137.998H27.357v-5.677h134.575v5.677zm-106.039 20.56H29.655v-5.677h26.238v5.677z" fill="#D7EBFF"></path>
      <path d="M134.126 100.635l5.898 31.686h-7.117l-5.898-31.686h7.117zm-102.583 0l5.897 31.686h-7.117l-5.898-31.686h7.117z" fill="#CCE3FF"></path>
      <path d="M58.915 137.998H27.357v-5.677h31.558v5.677z" fill="#B6D4FF"></path>
      <path d="M17.327 121.29l1.055 5.678h7.119l-1.057-5.678h-7.117z" fill="#CCE3FF"></path>
      <path d="M24.444 121.29l1.057 5.678h119.776l-1.057-5.678H24.444z" fill="#D7EBFF"></path>
      <path d="M15.404 110.962l1.055 5.677h7.12l-1.058-5.677h-7.117z" fill="#CCE3FF"></path>
      <path d="M22.522 110.962l1.057 5.677h119.776l-1.057-5.677H22.522z" fill="#D7EBFF"></path>
      <path d="M20.6 100.635l1.054 5.677h-7.116l-1.055-5.677h7.116z" fill="#CCE3FF"></path>
      <path d="M140.375 100.635l1.058 5.677H21.656l-1.055-5.677h119.774z" fill="#D7EBFF"></path>
      <path d="M55.893 137.998l7.859 36.701h-5.2l-7.859-36.701h5.2zm82.643 0l-7.859 36.701h-5.199l7.859-36.701h5.199z" fill="#CCE3FF"></path>
      <path d="M158.848 158.558H132.61v-5.677h26.238v5.677z" fill="#D7EBFF"></path>
      <path d="M158.848 137.998l7.859 36.701h-5.199l-7.859-36.701h5.199z" fill="#CCE3FF"></path>
    </g>
    <mask id="a" maskUnits="userSpaceOnUse" x="102" y="72" width="60" height="61">
      <rect x="102.179" y="72.84" width="59.633" height="59.89" rx="17.436" fill="#F2F5F7"></rect>
    </mask>
    <g mask="url(#a)">
      <rect x="102.558" y="73.219" width="58.875" height="59.132" rx="17.057" fill="#fff" stroke="#EBF1F8" stroke-width=".758"></rect>
      <path d="M131.733 87.011c5.412 4.52 11.619 4.241 13.392 4.241-.388 25.706-3.343 20.608-13.392 27.816-10.048-7.208-12.985-2.11-13.373-27.816 1.755 0 7.961.279 13.373-4.241z" stroke="#3375BB" stroke-width="4.084" stroke-miterlimit="10" stroke-linecap="round" stroke-linejoin="round"></path>
    </g>
    <g clip-path="url(#clip0)">
      <path d="M106.46 169.312l-.052 4.811s10.059 1.699 13.469 5.817H99.836l.839-13.752 5.785 3.124zm-32.091-1.102l-.055 5.723s4.487.628 6.313 5.962H66.1l1.452-6.279.569-5.723 6.247.317z" fill="#3375BB"></path>
      <path d="M100.677 167.448l5.785 1.864-.053 4.81-6.198-.298.466-6.376zm-32.433-1.212l6.126 1.974-.055 5.722-6.76-.316.69-7.38z" fill="#F6B852"></path>
      <path d="M81.12 133.393l-3.918 37.95H66.665l1.783-37.95h-7.472c-5.66 0-10.248-4.55-10.248-10.164v-4.518h51.892c7.326 0 12.996 6.428 12.089 13.706l-5.062 38.926H98.93l.494-37.95H81.12z" fill="#19141E"></path>
      <path opacity=".102" fill-rule="evenodd" clip-rule="evenodd" d="M50.727 118.711h23.004c4.752 0 8.467 4.066 8.001 8.757l-4.53 43.875H66.665l1.783-37.95h-7.472c-5.66 0-10.248-4.55-10.248-10.164v-4.518z" fill="#fff"></path>
      <path d="M90.873 98.232c-2.012 3.967-9.075 16.991-14.11 14.913-3.77-1.555-8.282-14.45-8.282-14.45l7.336-4.385 3.296 8.862 6.73-7.343c-.228-1.456-.411-3.358.044-4.028.776-1.142 4.7-4.658 4.7-4.658l.715 5.958.125-.502c0-.028.007-.059.02-.091l.005-.01.289-1.163c-.121-.06-.171-.148-.119-.27a.994.994 0 0 1 .266-.32l.986-3.969s.324.145.798.361c.764-.158 3.528 1.73 3.57 1.758.563.365-.776 6.4-1.863 7.52-.774.798-3.18 1.486-4.506 1.817zM45.93 125.14l.45.857s.406.7.832 1.921c.426 1.222.249 1.969 1.17 3.888 1.045 2.179-.825 1.28-1.495.33-.523-.743-.464-1.746-1.143-2.195-.227.364-.746.885-1.036 4.028-.052.564.202 2.392.202 2.392.006.548.076 1.69-.545 1.865-.154.043-.355-.128-.355-.128s.06.715-.574.857c-.25.056-.745-1.487-.745-1.487s-.076.784-.55.871c-.134.024-1.716-4.448-1.716-4.448l.096 1.01.21 1.035s-.017.557-.463.655c-.177.039-.516-.89-.834-1.982-.495-1.701-.485-2.978-.34-4.249.177-1.535.098-2.051.779-3.934.081-.225.19-.484.312-.75-.373-3.237-1.425-12.712-1.296-15.62.156-3.529 3.878-11.361 3.878-11.361l7.557 4.243-4.165 7.621-.229 14.581zm18.08-35.097c-4.377-.258-6.224-2.99-6.645-3.729 2.777-.192 3.067-.164 6.767.22 1.5.157 2.552.477 3.571.757.22.752.534 3-3.693 2.752z" fill="#F6B852"></path>
      <mask id="b" maskUnits="userSpaceOnUse" x="42" y="86" width="38" height="33">
        <path d="M76.476 94.221l.026-.005 2.982 6.883-4.256 2.491-.888 15.028H50.096l-.406-14.82-7.666-5.757s3.615-7.28 9.8-10.178c2-.937 3.834-1.38 5.54-1.549.14-.014.03-.01.047.056a.73.73 0 0 0 .083.158c.039.063.039.043.231.327.192.285.477.568.906 1.008a6.11 6.11 0 0 0 1.33.993c.55.308 1.089.514 1.435.66.312.132.575.201.83.262.719.171 1.278.225 2.42.284.138.008.94-.052 1.082-.08.2-.04.381-.077.609-.139a2.598 2.598 0 0 0 1.167-.794c.159-.198.31-.85.263-1.33-.046-.479-.255-.48-.064-.427 3.349.915 6.513 2.802 8.363 6.15.15.27.286.529.41.779z" fill="#3375BB"></path>
      </mask>
      <g mask="url(#b)">
        <path d="M76.476 94.221l.026-.005 2.982 6.883-4.256 2.491-.888 15.028H50.096l-.406-14.82-7.666-5.757s3.615-7.28 9.8-10.178c2-.937 3.834-1.38 5.54-1.549.14-.014.03-.01.047.056a.73.73 0 0 0 .083.158c.039.063.039.043.231.327.192.285.477.568.906 1.008a6.11 6.11 0 0 0 1.33.993c.55.308 1.089.514 1.435.66.312.132.575.201.83.262.719.171 1.278.225 2.42.284.138.008.94-.052 1.082-.08.2-.04.381-.077.609-.139a2.598 2.598 0 0 0 1.167-.794c.159-.198.31-.85.263-1.33-.046-.479-.255-.48-.064-.427 3.349.915 6.513 2.802 8.363 6.15.15.27.286.529.41.779z" fill="#3375BB"></path>
      </g>
      <path opacity=".201" d="M49.69 103.797l1.945 1.321 4.674-5.45" stroke="#000" stroke-width=".834"></path>
      <path d="M94.085 94.162l-.34 1.664h-5.484l2.587-13.248h5.485l-1.004 5.144-1.079-.5-.336-.094-.264.015-.115.078v.322l1.172 1.689-.896.391-1.38.725-.4.277-.154.143-.126.113-.08.098-.049.087-.02.112.02.05.025.039.034.034.453.16 1.032-.283h1.02l-1.362.283-.897.538-.305.288-.172.211v.193l.301.136 1.899-.218-.629.342-.417.259-.381.197-.296.382v.188l.105.11.265.142h1.219l.569-.067z" fill="#5E93D1"></path>
      <path fill-rule="evenodd" clip-rule="evenodd" d="M88.26 95.826h-.908l2.587-13.248h.907L88.26 95.826zm3.532-11.71c-.076.387-.301.669-.502.63-.202-.04-.304-.385-.228-.772.076-.388.3-.67.502-.63.202.04.303.385.228.772z" fill="#020101"></path>
      <path fill-rule="evenodd" clip-rule="evenodd" d="M74.468 69.854l-18.81.479-.014-.303-.224-4.631-.17-3.525a1.88 1.88 0 0 1 2.012-1.97l15.125 1.114a1.881 1.881 0 0 1 1.74 1.787l.082 1.664.224 4.663.035.722z" fill="#19141E"></path>
      <path fill-rule="evenodd" clip-rule="evenodd" d="M74.433 69.132c-2.72.366-5.894.654-9.286.819-3.467.169-6.718.187-9.503.08l-.224-4.632c2.76-.378 5.999-.676 9.467-.843 3.393-.165 6.577-.186 9.322-.087l.224 4.663z" fill="#5E93D1"></path>
      <path d="M66.304 87.444l-.154-5.343s6.475.517 7.86-.205c0 0 1.693-8.747-.326-13.59l-.04-.19-13.666-1.276-.914 7.34c-.46-1.362-4.111-2.708-5.104-.759-2.152 4.225 5.543 7.07 5.543 7.07l-.782 7.017" fill="#F6B852"></path>
      <path opacity=".398" fill-rule="evenodd" clip-rule="evenodd" d="M66.15 82.1l-4.366-.938 4.346 2.944.02-2.005z" fill="#000"></path>
      <path fill-rule="evenodd" clip-rule="evenodd" d="M69.752 73.369l1.509 3.699-1.809.023.3-3.722zm-1.72 1.051a.914.914 0 0 1-1.8.326.914.914 0 0 1 1.8-.326zm4.746 0a.914.914 0 0 1-1.8.326.914.914 0 0 1 1.8-.326z" fill="#0D0B6D"></path>
      <path fill-rule="evenodd" clip-rule="evenodd" d="M67.876 78.138s.632 1.028 1.884.94z" fill="#fff"></path>
      <path d="M67.876 78.138s.632 1.028 1.884.94" stroke="#252535" stroke-width=".719"></path>
      <path fill-rule="evenodd" clip-rule="evenodd" d="M74.412 71.026l-.215-1.11c-.371-1.478-11.528-.914-11.528-.914l.152 1.987-.187.95c-9.028.26-16.032-.531-16.098-1.897-.072-1.49 8.144-3.1 18.35-3.596 10.208-.496 18.54.31 18.612 1.8.048.996-3.608 2.045-9.086 2.78z" fill="#19141E"></path>
      <path fill-rule="evenodd" clip-rule="evenodd" d="M60.615 76.474a4.969 4.969 0 0 0-.043-.095c-1.425-3.058-3.923-3.693-4.613-3.813-.118-.99-.208-1.78-.208-1.78-.11-1.353 6.918-1.784 6.918-1.784s.686 6.37.253 6.913c-.27.34-1.218.496-2.307.56z" fill="#19141E"></path>
    </g>
    <defs>
      <clipPath id="clip0">
        <path fill="#fff" d="M38.879 59.899h81.122V180H38.879z"></path>
      </clipPath>
    </defs>
  </symbol></defs>
<use xlink:href="#download" alt="Illustration that shows a man sitting on a bench downloading a wallet"></use>
</svg>