<svg xmlns:xlink="http://www.w3.org/1999/xlink" xmlns="http://www.w3.org/2000/svg" alt="icon icon-sm" aria-label="Illustration that shows a man holding phone while buying cryptocurrencies with credit card" width="180"  height="180" ><defs><symbol viewBox="0 0 180 180" fill="none" xmlns="http://www.w3.org/2000/svg" id="buy">
    <g clip-path="url(#clip0)">
      <g clip-path="url(#clip1)">
        <path d="M142.158 3.18v78.883" stroke="#ECF6FF" stroke-width="3.047"></path>
        <path d="M143.328.352v81.965" stroke="#DCEEFF" stroke-width="2.355"></path>
        <path d="M116.723 0v82.517" stroke="#B6D4FF" stroke-width="2.77"></path>
        <path d="M166.803.674v81.107" stroke="#ECF6FF" stroke-width="3.047"></path>
        <path fill-rule="evenodd" clip-rule="evenodd" d="M169.858 82.517H117.62V0h52.238v82.517zm-3.189-3.192h-45.86V3.192h45.86v76.133z" fill="#DCEEFF"></path>
        <path fill-rule="evenodd" clip-rule="evenodd" d="M180 86.584h-64.704v-4.067H180v4.067z" fill="#CCE3FF"></path>
        <path fill-rule="evenodd" clip-rule="evenodd" d="M130.342 86.584h-16.028v-4.067h16.028v4.067z" fill="#B6D4FF"></path>
        <path d="M165.892 28.846h-48.273m48.273 25.631h-48.273" stroke="#DCEEFF" stroke-width="2.355"></path>
        <path fill-rule="evenodd" clip-rule="evenodd" d="M132.946 77.78a7.238 7.238 0 0 0 2.595 4.737h9.195a7.247 7.247 0 0 0 2.596-4.736h-14.386z" fill="#B6D4FF"></path>
        <path fill-rule="evenodd" clip-rule="evenodd" d="M132.947 73.827c.428 3.595 3.485 6.384 7.192 6.384a7.248 7.248 0 0 0 7.193-6.384h-14.385z" fill="#B6D4FF"></path>
        <path fill-rule="evenodd" clip-rule="evenodd" d="M159.937 79.534l-1.561-15.227h-4.882l-1.561 15.227a2.706 2.706 0 0 0 2.69 2.983h2.624a2.706 2.706 0 0 0 2.69-2.983z" fill="#CCE3FF"></path>
      </g>
      <g fill-rule="evenodd" clip-rule="evenodd">
        <path d="M42.224 36.366H28.237l-1.89-18.928h13.988l1.889 18.928z" fill="#DCEEFF"></path>
        <path d="M42.224 36.366H28.237l-1.89-18.928h13.988l1.889 18.928z" stroke="#DCEEFF" stroke-width=".623"></path>
        <path d="M42.977 36.366H28.73l-1.889-18.928H41.09l1.889 18.928z" fill="#fff"></path>
        <path d="M42.977 36.366H28.73l-1.889-18.928H41.09l1.889 18.928z" stroke="#DCEEFF" stroke-width=".623"></path>
        <path d="M40.249 33.867H30.96l-1.39-13.93h9.289l1.39 13.93zm-34.966-10.8l1.309 13.114h17.187L22.47 23.067H5.283z" fill="#DCEEFF"></path>
        <path d="M5.283 23.067l1.309 13.114h17.187L22.47 23.067H5.283z" stroke="#DCEEFF" stroke-width=".623"></path>
        <path d="M5.667 23.067l1.31 13.114h17.506l-1.309-13.114H5.667z" fill="#fff"></path>
        <path d="M5.667 23.067l1.31 13.114h17.506l-1.309-13.114H5.667z" stroke="#DCEEFF" stroke-width=".623"></path>
        <path d="M9.358 25.64l.796 7.969h10.638l-.795-7.969H9.358zm54.026 5.64a1.815 1.815 0 0 1-1.812 1.817H45.268v-3.635h16.304c1 0 1.812.814 1.812 1.817z" fill="#CCE3FF"></path>
        <path d="M52.419 31.28a1.05 1.05 0 0 1-1.049 1.052h-6.057a.044.044 0 0 1-.044-.044v-2.017c0-.024.02-.044.044-.044h6.057c.58 0 1.049.471 1.049 1.053z" fill="#DCEEFF"></path>
        <path d="M65.66 33.098v3.635H47.863a1.816 1.816 0 0 1-1.813-1.817c0-1.004.812-1.818 1.813-1.818h17.795z" fill="#CCE3FF"></path>
        <path d="M65.66 33.873v2.085h-7.318a1.04 1.04 0 0 1-1.039-1.043 1.04 1.04 0 0 1 1.04-1.042h7.316zm5.778 5.275H10.092v-2.585h61.346v2.585z" fill="#DCEEFF"></path>
        <path d="M10.093 39.148H0v-2.585h10.092v2.585z" fill="#CCE3FF"></path>
        <path d="M56.486 39.148l-4.79 7.54v-7.54h4.79z" fill="#B6D4FF"></path>
        <path d="M59.138 39.148l-4.79 7.54h-2.652l4.79-7.54h2.652z" fill="#CCE3FF"></path>
        <path d="M21.35 39.148l-4.791 7.54v-7.54h4.79z" fill="#B6D4FF"></path>
        <path d="M24.001 39.148l-4.79 7.54h-2.652l4.79-7.54h2.652z" fill="#CCE3FF"></path>
      </g>
      <path fill-rule="evenodd" clip-rule="evenodd" d="M139.089 122.374c0 4.522-2.749 8.187-6.141 8.187-3.393 0-6.142-3.665-6.142-8.187 0-4.522 2.749-8.187 6.142-8.187 3.392 0 6.141 3.665 6.141 8.187z" fill="#CCE3FF"></path>
      <path d="M132.994 165.375V122.79" stroke="#DCEEFF" stroke-width="1.213"></path>
      <path fill-rule="evenodd" clip-rule="evenodd" d="M126.38 134.401c2.9 2.9 3.488 7.013 1.312 9.188-2.175 2.174-6.289 1.587-9.19-1.313-2.9-2.899-3.488-7.013-1.313-9.187 2.176-2.175 6.29-1.587 9.191 1.312zm20.71 5.956c2.338 2.338 1.706 6.761-1.412 9.878-3.118 3.118-7.542 3.75-9.881 1.412" fill="#CCE3FF"></path>
      <path d="M143.938 144.477l-10.762 10.79m7.652-21.109l-7.865 7.77m-8.166 9.287l8.216 8.306m-11.049-21.602l10.983 11.111" stroke="#DCEEFF" stroke-width="1.213"></path>
      <path fill-rule="evenodd" clip-rule="evenodd" d="M136.289 180h-6.587c-5.06 0-9.199-4.139-9.199-9.197v-8.653h24.984v8.653c0 5.058-4.139 9.197-9.198 9.197z" fill="#ECF6FF"></path>
      <path d="M145.487 166.961h-24.984m24.984 4.822h-24.984" stroke="#DCEEFF" stroke-width="1.213"></path>
      <path fill-rule="evenodd" clip-rule="evenodd" d="M94.453 45.263c0 2.396-1.54 4.338-3.44 4.338-1.901 0-3.442-1.942-3.442-4.338s1.54-4.338 3.441-4.338c1.9 0 3.441 1.942 3.441 4.338" fill="#19141E"></path>
      <path d="M86.31 62.448l-.144-4.983s6.042.482 7.334-.19c0 0 1.58-8.157-.304-12.673l-.038-.176-12.75-1.495-.714 7.332c-.43-1.27-3.974-2.709-4.9-.89-2.008 3.938 5.17 6.59 5.17 6.59l-.728 6.545" fill="#F6B852"></path>
      <path opacity=".399" fill-rule="evenodd" clip-rule="evenodd" d="M86.167 57.465l-4.074-.875 4.054 2.745.02-1.87z" fill="#000"></path>
      <path fill-rule="evenodd" clip-rule="evenodd" d="M89.423 50.17l1.408 3.45-1.687.022.279-3.471zm-1.502.133a.853.853 0 1 1-1.678.304.853.853 0 0 1 1.678-.304m4.731 0a.853.853 0 0 1-1.678.304.853.853 0 0 1 1.678-.304" fill="#0D0B6D"></path>
      <path d="M80.64 51.515c-1.209-2.074-2.957-2.706-3.743-2.891-.313-.907-.551-1.96-.719-3.078-.45-2.994 1.722-5.725 3.477-6.51 1.776-.794 4.838-1.894 9.32-.4 3.013 1.004 4.94-1.401 6.713-.374 3.03 1.756.211 9.443-7.472 7.49-5.496-1.397-5.637-1.047-5.684-.031-.152 3.282-.663 5.213-1.892 5.794z" fill="#2F2F3D"></path>
      <path fill-rule="evenodd" clip-rule="evenodd" d="M89.013 50.345c0 1.08-.873 1.955-1.95 1.955a1.953 1.953 0 0 1-1.952-1.955c0-1.08.874-1.955 1.951-1.955 1.078 0 1.951.875 1.951 1.955zm4.914 0c0 1.08-.874 1.955-1.952 1.955a1.953 1.953 0 0 1-1.95-1.955c0-1.08.873-1.955 1.95-1.955 1.078 0 1.952.875 1.952 1.955z" stroke="#252535" stroke-width=".669"></path>
      <path d="M89.866 50.435h-.844m-3.91-.09h-4.819" stroke="#252535" stroke-width=".669"></path>
      <path fill-rule="evenodd" clip-rule="evenodd" d="M91.329 174.435l.047-4.086-5.265-2.654-.764 11.682h18.241c-3.104-3.499-12.26-4.942-12.26-4.942zm-23.367.159l.048-4.59-3.433 2.797-2.762 1.539-.912 5.037h12.485c-1.57-4.279-5.426-4.783-5.426-4.783z" fill="#3375BB"></path>
      <path fill-rule="evenodd" clip-rule="evenodd" d="M68.01 170.005l-5.266-1.584-.93 5.92 6.148.253.047-4.589zm23.366.343l-5.265-1.583-.425 5.416 5.643.253.047-4.086z" fill="#F6B852"></path>
      <path d="M92.13 169.008l-.12 3.793h-6.946l.122-3.804a2.154 2.154 0 0 1-1.353-1.951l-1.118-56.806-12.079 57.35a2.218 2.218 0 0 1-1.527 1.664l-.455 3.547h-7.281l.626-3.916a2.207 2.207 0 0 1-.837-2.07l11.121-76.01h10.05v-.03h12.171l-.73 76.165a2.154 2.154 0 0 1-1.643 2.068z" fill="#2F2F3D"></path>
      <path opacity=".198" fill-rule="evenodd" clip-rule="evenodd" d="M82.654 111.141l2.132-9.454-1.604 28.663-.528-19.209z" fill="#000"></path>
      <g clip-path="url(#clip2)">
        <mask id="a" maskUnits="userSpaceOnUse" x="13" y="80" width="106" height="80">
          <path d="M113.469 101.422L33.072 80.575a6.274 6.274 0 0 0-7.648 4.498l-11.848 45.694a6.273 6.273 0 0 0 4.498 7.647l80.397 20.847a6.273 6.273 0 0 0 7.648-4.498l11.849-45.693a6.274 6.274 0 0 0-4.499-7.648z" fill="#fff"></path>
        </mask>
        <g mask="url(#a)">
          <path d="M113.469 101.422L33.072 80.575a6.274 6.274 0 0 0-7.648 4.498l-11.848 45.694a6.273 6.273 0 0 0 4.498 7.647l80.397 20.847a6.273 6.273 0 0 0 7.648-4.498l11.849-45.693a6.274 6.274 0 0 0-4.499-7.648z" fill="#1B323C"></path>
          <g opacity=".198">
            <path opacity=".198" d="M109.737 188.417c10.382 2.692 20.98-3.541 23.672-13.923s-3.542-20.98-13.924-23.672c-10.381-2.692-20.98 3.541-23.672 13.923s3.542 20.98 13.924 23.672z" fill="url(#paint0_linear)"></path>
            <path opacity=".198" d="M107.263 197.961c15.652 4.059 31.631-5.34 35.69-20.992 4.059-15.653-5.34-31.632-20.992-35.691-15.653-4.059-31.632 5.34-35.69 20.993-4.06 15.652 5.34 31.631 20.992 35.69z" fill="url(#paint1_linear)"></path>
            <path opacity=".198" d="M104.858 207.831c21.003 5.446 42.445-7.165 47.891-28.168 5.446-21.003-7.165-42.445-28.169-47.891-21.003-5.446-42.444 7.165-47.89 28.168-5.446 21.004 7.165 42.445 28.168 47.891z" fill="url(#paint2_linear)"></path>
            <path opacity=".198" d="M101.864 218.783c27.152 7.041 54.871-9.263 61.912-36.415 7.04-27.153-9.264-54.871-36.416-61.912-27.152-7.041-54.871 9.263-61.912 36.416-7.04 27.152 9.263 54.871 36.416 61.911z" fill="url(#paint3_linear)"></path>
            <path opacity=".198" d="M98.864 230.351c33.541 8.698 67.782-11.442 76.48-44.983 8.697-33.542-11.443-67.783-44.984-76.48-33.542-8.697-67.783 11.443-76.48 44.984-8.697 33.541 11.443 67.782 44.984 76.479z" fill="url(#paint4_linear)"></path>
            <path opacity=".198" d="M95.865 241.919c39.93 10.354 80.693-13.622 91.047-53.552 10.353-39.93-13.623-80.693-53.553-91.047s-80.693 13.622-91.047 53.552 13.623 80.693 53.553 91.047z" fill="url(#paint5_linear)"></path>
          </g>
          <g opacity=".198">
            <path opacity=".198" d="M4.554 201.267c10.382 2.692 20.98-3.542 23.672-13.924s-3.541-20.98-13.923-23.672-20.98 3.542-23.672 13.924c-2.692 10.381 3.541 20.98 13.923 23.672z" fill="url(#paint6_linear)"></path>
            <path opacity=".198" d="M2.08 210.81c15.652 4.059 31.63-5.34 35.69-20.992 4.058-15.653-5.34-31.632-20.993-35.691-15.653-4.058-31.632 5.34-35.69 20.993-4.06 15.652 5.34 31.632 20.992 35.69z" fill="url(#paint7_linear)"></path>
            <path opacity=".198" d="M-.325 220.681c21.003 5.446 42.444-7.166 47.89-28.169 5.446-21.003-7.165-42.445-28.168-47.891-21.003-5.446-42.445 7.166-47.89 28.169-5.447 21.003 7.164 42.444 28.168 47.891z" fill="url(#paint8_linear)"></path>
            <path opacity=".198" d="M-3.32 231.633c27.152 7.04 54.871-9.263 61.912-36.416 7.04-27.152-9.263-54.871-36.416-61.912-27.152-7.04-54.87 9.263-61.912 36.416-7.04 27.152 9.264 54.871 36.416 61.912z" fill="url(#paint9_linear)"></path>
            <path opacity=".198" d="M-6.318 243.201c33.54 8.697 67.782-11.443 76.479-44.984 8.697-33.542-11.443-67.783-44.984-76.48-33.541-8.697-67.782 11.443-76.48 44.984-8.697 33.541 11.443 67.782 44.985 76.48z" fill="url(#paint10_linear)"></path>
            <path opacity=".198" d="M-9.318 254.769c39.93 10.354 80.693-13.623 91.047-53.553s-13.622-80.693-53.552-91.047c-39.93-10.353-80.694 13.623-91.047 53.553-10.354 39.93 13.622 80.693 53.552 91.047z" fill="url(#paint11_linear)"></path>
          </g>
        </g>
        <path d="M22.213 127.781a.215.215 0 0 1-.136-.103.221.221 0 0 1-.023-.175.208.208 0 0 1 .104-.137.212.212 0 0 1 .17-.024c.06.015.105.05.136.103a.21.21 0 0 1 .024.17.231.231 0 0 1-.105.143.215.215 0 0 1-.17.023zm1.61.418a.216.216 0 0 1-.137-.104.221.221 0 0 1-.022-.175.21.21 0 0 1 .103-.137.22.22 0 0 1 .17-.024c.06.016.105.05.137.104.032.051.04.108.024.169a.229.229 0 0 1-.105.143.22.22 0 0 1-.17.024zm1.61.417a.224.224 0 0 1-.16-.279.209.209 0 0 1 .104-.136.212.212 0 0 1 .17-.024c.06.015.105.05.136.103a.21.21 0 0 1 .024.17.23.23 0 0 1-.105.142.212.212 0 0 1-.17.024zm1.61.418a.216.216 0 0 1-.137-.104.222.222 0 0 1-.023-.175.208.208 0 0 1 .104-.137.22.22 0 0 1 .17-.024c.059.016.105.05.136.103a.21.21 0 0 1 .024.17.231.231 0 0 1-.105.143.22.22 0 0 1-.17.024zm10.147.772c.261.068.422.225.483.471.047.19.033.43-.042.72-.071.275-.171.491-.3.65-.185.227-.413.306-.682.236a.601.601 0 0 1-.46-.457c-.053-.202-.041-.451.036-.747.06-.23.14-.419.242-.569.19-.278.431-.379.722-.304zm-.482 1.845a.375.375 0 0 0 .36-.093c.109-.097.204-.304.287-.622.06-.23.08-.426.062-.589-.018-.163-.109-.266-.272-.308-.15-.039-.277.003-.383.127-.105.122-.194.32-.265.594a1.579 1.579 0 0 0-.062.514c.018.209.11.335.273.377zm1.295.003c-.029.142 0 .253.087.333a.407.407 0 0 0 .514.017c.112-.079.226-.269.342-.57a.49.49 0 0 1-.26.135.695.695 0 0 1-.282-.016.626.626 0 0 1-.415-.302.684.684 0 0 1-.048-.513.777.777 0 0 1 .293-.441c.148-.11.332-.137.55-.08.295.076.464.262.507.556a1.45 1.45 0 0 1-.049.572 1.863 1.863 0 0 1-.282.629c-.206.286-.456.391-.75.315-.199-.051-.335-.142-.411-.272a.55.55 0 0 1-.053-.43l.257.067zm.493-.315a.444.444 0 0 0 .301-.028c.101-.045.173-.15.216-.316.039-.149.03-.269-.027-.361a.4.4 0 0 0-.256-.184.387.387 0 0 0-.33.049.502.502 0 0 0-.194.305.495.495 0 0 0 .014.339c.044.094.136.159.276.196zm1.913-.698c.261.068.422.225.483.471.047.19.033.43-.042.72-.071.274-.17.491-.3.65-.185.227-.412.306-.681.236a.603.603 0 0 1-.46-.457c-.054-.202-.042-.451.035-.747.06-.23.14-.42.242-.569.19-.278.432-.379.723-.304zm-.482 1.845a.373.373 0 0 0 .36-.094c.109-.096.204-.303.287-.622.06-.229.08-.425.062-.588-.018-.163-.108-.266-.271-.308a.356.356 0 0 0-.384.126c-.105.123-.193.321-.264.595a1.576 1.576 0 0 0-.063.514c.018.209.11.334.273.377zm1.295.003c-.028.142 0 .253.087.333a.407.407 0 0 0 .514.017c.112-.08.226-.27.342-.57a.49.49 0 0 1-.259.135.695.695 0 0 1-.282-.016.627.627 0 0 1-.416-.303.68.68 0 0 1-.048-.512.774.774 0 0 1 .294-.441c.148-.11.331-.137.55-.08.294.076.463.261.506.556a1.45 1.45 0 0 1-.049.572 1.872 1.872 0 0 1-.282.629c-.206.286-.456.391-.75.315-.198-.052-.335-.142-.41-.272a.55.55 0 0 1-.053-.43l.256.067zm.493-.316a.443.443 0 0 0 .301-.027c.102-.045.174-.151.217-.316.038-.149.03-.269-.027-.361a.4.4 0 0 0-.257-.184.386.386 0 0 0-.33.048.505.505 0 0 0-.194.305.498.498 0 0 0 .014.34c.044.094.136.159.276.195zm-9.697-33.957l-.525 2.024-.205-.053.42-1.62-1.148 1.157-.102-.027-.444-1.56-.418 1.612-.205-.054.525-2.024.176.046.49 1.728 1.26-1.275.176.046zm1.021.79c.199.051.338.14.418.268.08.126.096.286.045.481l-.244.943-.197-.051.061-.237a.486.486 0 0 1-.253.132.732.732 0 0 1-.335-.016.647.647 0 0 1-.374-.227.405.405 0 0 1-.067-.36.403.403 0 0 1 .22-.276c.115-.055.275-.055.479-.002l.483.125.024-.093c.034-.13.023-.24-.033-.326-.055-.089-.153-.151-.294-.188a.82.82 0 0 0-.552.049l-.053-.178a.827.827 0 0 1 .317-.078c.117-.009.236.003.355.034zm-.431 1.366c.115.03.221.03.318-.001a.5.5 0 0 0 .245-.183l.064-.249-.477-.124c-.26-.067-.414-.01-.46.17a.26.26 0 0 0 .046.238.484.484 0 0 0 .264.149zm1.611.591a1.23 1.23 0 0 1-.342-.145.789.789 0 0 1-.228-.204l.135-.138c.05.067.12.129.207.187.089.056.185.097.29.124.138.036.246.041.322.016a.217.217 0 0 0 .15-.159.165.165 0 0 0-.022-.144.347.347 0 0 0-.12-.109 1.899 1.899 0 0 0-.21-.106 3.017 3.017 0 0 1-.28-.147.48.48 0 0 1-.161-.175.357.357 0 0 1-.016-.26.389.389 0 0 1 .24-.271c.127-.053.285-.056.474-.007.098.026.193.065.284.117.092.05.164.105.217.164l-.132.142a.793.793 0 0 0-.415-.246.545.545 0 0 0-.316-.008.22.22 0 0 0-.145.157.188.188 0 0 0 .019.153.38.38 0 0 0 .121.114c.052.03.125.067.219.11.115.054.207.103.274.145.067.042.12.098.157.167a.338.338 0 0 1 .018.252.382.382 0 0 1-.25.274c-.13.049-.293.048-.49-.003zm1.836.361a.407.407 0 0 1-.166.044.607.607 0 0 1-.183-.02.466.466 0 0 1-.3-.201.46.46 0 0 1-.03-.357l.238-.92-.272-.07.045-.173.272.07.086-.332.206.053-.087.332.463.12-.045.174-.463-.12-.235.908c-.024.091-.02.166.012.225.035.059.094.099.18.121a.364.364 0 0 0 .245-.02l.034.166zm1.801-.177l-1.272-.33a.564.564 0 0 0 .082.431.63.63 0 0 0 .38.253.69.69 0 0 0 .272.018.595.595 0 0 0 .245-.097l.08.163a.665.665 0 0 1-.302.119.871.871 0 0 1-.349-.022.899.899 0 0 1-.39-.207.754.754 0 0 1-.21-.35.812.812 0 0 1 .003-.425.857.857 0 0 1 .199-.375.737.737 0 0 1 .744-.205.76.76 0 0 1 .354.197.715.715 0 0 1 .192.343.843.843 0 0 1-.008.424l-.02.063zm-.563-.85a.539.539 0 0 0-.407.045.566.566 0 0 0-.262.321l1.078.28a.561.561 0 0 0-.076-.409.527.527 0 0 0-.333-.237zm1.317.483a.523.523 0 0 1 .274-.176.76.76 0 0 1 .376.015l-.052.199-.048-.016a.507.507 0 0 0-.414.05c-.116.075-.197.201-.243.379l-.201.775-.206-.053.395-1.522.196.051-.077.298zm1.237 1.642a.86.86 0 0 1-.38-.203.742.742 0 0 1-.206-.347.829.829 0 0 1 .003-.428.81.81 0 0 1 .205-.373.741.741 0 0 1 .349-.203.862.862 0 0 1 .43.007.78.78 0 0 1 .33.169.589.589 0 0 1 .188.286l-.18.064a.486.486 0 0 0-.148-.217.621.621 0 0 0-.554-.125.537.537 0 0 0-.26.155.669.669 0 0 0-.152.291.676.676 0 0 0-.008.331.563.563 0 0 0 .43.411.6.6 0 0 0 .266.01.488.488 0 0 0 .234-.118l.127.144a.616.616 0 0 1-.305.161.817.817 0 0 1-.37-.015zm1.932-1.15c.199.051.338.141.418.269.08.125.096.286.045.48l-.244.943-.197-.051.061-.237a.486.486 0 0 1-.253.132.732.732 0 0 1-.335-.016.647.647 0 0 1-.373-.227.404.404 0 0 1-.068-.36.403.403 0 0 1 .22-.276c.115-.054.275-.055.48-.002l.482.125.024-.092c.034-.132.023-.24-.033-.327-.055-.088-.153-.151-.294-.187a.815.815 0 0 0-.552.048l-.053-.177a.826.826 0 0 1 .317-.079c.117-.008.236.003.355.034zm-.431 1.366c.115.03.221.03.318-.001a.493.493 0 0 0 .245-.183l.064-.249-.477-.123c-.26-.068-.414-.011-.46.17a.262.262 0 0 0 .046.238.483.483 0 0 0 .264.148zm1.721-.701a.511.511 0 0 1 .274-.176.76.76 0 0 1 .376.014l-.052.199-.048-.015a.5.5 0 0 0-.414.05c-.116.075-.197.201-.243.378l-.201.775-.206-.053.395-1.521.196.051-.077.298zm2.555-.323l-.557 2.146-.196-.051.078-.301a.642.642 0 0 1-.307.171.732.732 0 0 1-.362-.008.801.801 0 0 1-.362-.198.729.729 0 0 1-.2-.346.837.837 0 0 1 .005-.427.844.844 0 0 1 .203-.377c.096-.1.21-.167.342-.201a.803.803 0 0 1 .725.167.63.63 0 0 1 .188.286l.237-.914.206.053zm-1.28 1.78a.543.543 0 0 0 .562-.157.65.65 0 0 0 .156-.29.649.649 0 0 0 .005-.329.522.522 0 0 0-.148-.261.575.575 0 0 0-.267-.149.588.588 0 0 0-.312 0 .546.546 0 0 0-.256.155.669.669 0 0 0-.153.291.67.67 0 0 0-.008.328.563.563 0 0 0 .148.264.62.62 0 0 0 .273.148z" fill="#fff"></path>
        <g clip-path="url(#clip3)">
          <path d="M36.456 88.445l3.125.81-1.465 5.65-3.125-.81 1.465-5.65z" fill="#FF5F00"></path>
          <path d="M35.923 91.322a3.73 3.73 0 0 1 2.091-2.473 3.652 3.652 0 0 0-2.003-1.34c-1.974-.511-3.987.682-4.502 2.668-.515 1.987.665 4.008 2.639 4.52a3.652 3.652 0 0 0 2.401-.198 3.715 3.715 0 0 1-.626-3.177z" fill="#EB001B"></path>
          <path d="M43.064 93.174c-.515 1.986-2.529 3.18-4.503 2.667a3.653 3.653 0 0 1-2.003-1.34 3.7 3.7 0 0 0 2.092-2.472 3.73 3.73 0 0 0-.627-3.177 3.651 3.651 0 0 1 2.402-.198c1.974.512 3.152 2.543 2.64 4.52z" fill="#F79E1B"></path>
        </g>
      </g>
      <g clip-path="url(#clip4)">
        <mask id="b" maskUnits="userSpaceOnUse" x="16" y="89" width="103" height="75">
          <path d="M102.813 89.151l-81.645 15.242a6.274 6.274 0 0 0-5.017 7.319l8.663 46.403a6.274 6.274 0 0 0 7.319 5.016l81.645-15.242a6.273 6.273 0 0 0 5.016-7.318l-8.662-46.403a6.274 6.274 0 0 0-7.319-5.017z" fill="#fff"></path>
        </mask>
        <g mask="url(#b)">
          <path d="M102.813 89.151l-81.645 15.242a6.274 6.274 0 0 0-5.017 7.319l8.663 46.403a6.274 6.274 0 0 0 7.319 5.016l81.645-15.242a6.273 6.273 0 0 0 5.016-7.318l-8.662-46.403a6.274 6.274 0 0 0-7.319-5.017z" fill="#3EA4DD"></path>
        </g>
        <g clip-path="url(#clip5)">
          <path d="M32.398 117.491l-1.427.266-.16-5.797 1.428-.266.16 5.797zm-3.678-5.14l1.536-.287-1.22 6.055-1.486.277-2.153-4.66c-.897-.347-1.612-.365-1.612-.365l.008-.101 2.249-.419c.619-.116.771.38.771.38l.953 2.443.317.803.637-4.126zm12.273 3.535l-.323-.805-1.814.339-.141.892-1.487.277 1.155-5.608s.05-.444.58-.543l1.147-.214 2.194 5.418-1.31.244zm-1.941-1.698l1.171-.219-.815-2.028-.356 2.247zm-2.511-1.896c-.675-.232-2.08-.054-1.961.582.119.637 2.135.401 2.409 1.865.263 1.41-1.11 2.202-2.083 2.384-.974.182-1.67-.017-1.67-.017l-.024-1.304c.674.373 2.47.179 2.327-.585-.142-.764-2.12-.413-2.39-1.868-.29-1.546 1.333-2.178 2.04-2.31a4.073 4.073 0 0 1 1.33.006l.022 1.247z" fill="#fff"></path>
        </g>
        <path opacity=".198" d="M136.352 169.508c10.543-1.968 17.494-12.11 15.526-22.653s-12.11-17.494-22.653-15.526-17.495 12.11-15.527 22.653c1.969 10.543 12.111 17.495 22.654 15.526z" fill="url(#paint12_linear)"></path>
        <g opacity=".198">
          <path opacity=".198" d="M50.383 245.43c21.33-3.982 35.392-24.5 31.41-45.83-3.981-21.329-24.5-35.392-45.83-31.41-21.328 3.982-35.391 24.5-31.41 45.83 3.982 21.329 24.5 35.392 45.83 31.41z" fill="url(#paint13_linear)"></path>
          <path opacity=".198" d="M52.32 256.617c27.574-5.147 45.754-31.673 40.607-59.247-5.148-27.574-31.674-45.755-59.248-40.607-27.574 5.147-45.754 31.673-40.607 59.247 5.148 27.574 31.674 45.755 59.248 40.607z" fill="url(#paint14_linear)"></path>
          <path opacity=".198" d="M54.513 268.365c34.062-6.359 56.52-39.126 50.161-73.188-6.358-34.062-39.126-56.52-73.188-50.161-34.062 6.358-56.52 39.126-50.161 73.188 6.359 34.062 39.126 56.52 73.188 50.161z" fill="url(#paint15_linear)"></path>
          <path opacity=".198" d="M56.706 280.113c40.55-7.57 67.286-46.579 59.716-87.129-7.57-40.55-46.579-67.286-87.129-59.716-40.55 7.57-67.285 46.579-59.715 87.129 7.57 40.55 46.578 67.286 87.128 59.716z" fill="url(#paint16_linear)"></path>
        </g>
        <path d="M31.37 151.746a.218.218 0 0 1-.168-.036.223.223 0 0 1-.095-.149.21.21 0 0 1 .035-.168.22.22 0 0 1 .144-.094.218.218 0 0 1 .168.036.21.21 0 0 1 .093.143.23.23 0 0 1-.034.174.219.219 0 0 1-.144.094zm1.634-.305a.218.218 0 0 1-.168-.036.224.224 0 0 1-.094-.149.21.21 0 0 1 .035-.168.219.219 0 0 1 .144-.094.218.218 0 0 1 .167.036.21.21 0 0 1 .094.143.23.23 0 0 1-.034.174.22.22 0 0 1-.144.094zm1.635-.306a.223.223 0 0 1-.262-.185.208.208 0 0 1 .035-.167.215.215 0 0 1 .143-.094.218.218 0 0 1 .168.036.21.21 0 0 1 .094.143.23.23 0 0 1-.035.174.214.214 0 0 1-.143.093zm1.634-.305a.223.223 0 0 1-.262-.185.208.208 0 0 1 .035-.167.212.212 0 0 1 .144-.094c.06-.011.117 0 .168.035a.21.21 0 0 1 .093.144.23.23 0 0 1-.034.174.214.214 0 0 1-.144.093zm9.517-3.606c.266-.05.478.024.637.221.124.152.213.375.268.669.052.28.053.518.005.716-.072.285-.245.452-.518.504a.601.601 0 0 1-.61-.219c-.134-.16-.23-.39-.286-.692a1.806 1.806 0 0 1-.021-.617c.054-.333.23-.527.525-.582zm.347 1.875a.375.375 0 0 0 .286-.238c.057-.133.056-.361-.004-.685a1.65 1.65 0 0 0-.194-.558c-.085-.141-.21-.196-.376-.165a.358.358 0 0 0-.294.278c-.043.155-.039.372.013.65.04.21.093.374.162.492.105.182.24.257.407.226zm1.174-.547c.034.141.107.229.22.264a.408.408 0 0 0 .473-.202c.067-.12.09-.34.067-.662a.495.495 0 0 1-.177.233.688.688 0 0 1-.263.105.627.627 0 0 1-.505-.097.683.683 0 0 1-.26-.444.776.776 0 0 1 .078-.524c.088-.163.242-.265.464-.306.3-.056.53.04.695.289.09.136.157.316.198.538.047.252.051.481.012.69-.065.346-.247.547-.546.603-.201.038-.363.014-.487-.072a.55.55 0 0 1-.23-.367l.26-.048zm.313-.495a.444.444 0 0 0 .26-.153c.073-.083.093-.209.062-.378-.028-.151-.088-.256-.178-.315a.4.4 0 0 0-.31-.058.388.388 0 0 0-.278.184.503.503 0 0 0-.047.359.494.494 0 0 0 .157.301c.08.067.191.086.334.06zm1.435-1.443c.266-.05.478.024.638.22.123.152.212.376.267.67.052.279.054.518.005.716-.072.284-.244.452-.518.503a.603.603 0 0 1-.61-.218c-.134-.16-.229-.391-.285-.692a1.812 1.812 0 0 1-.022-.618c.055-.332.23-.526.525-.581zm.347 1.874a.374.374 0 0 0 .287-.237c.057-.134.055-.362-.005-.685a1.665 1.665 0 0 0-.194-.559c-.085-.14-.21-.195-.376-.164-.152.028-.25.121-.294.277-.043.156-.039.373.013.651.04.209.093.373.162.492.105.181.24.256.407.225zm1.174-.547c.034.141.108.229.22.265a.407.407 0 0 0 .473-.203c.067-.119.09-.34.068-.661a.487.487 0 0 1-.178.232.706.706 0 0 1-.262.106.627.627 0 0 1-.505-.098.683.683 0 0 1-.261-.444.773.773 0 0 1 .079-.523c.087-.163.242-.265.463-.306.3-.056.531.04.695.288.091.137.157.316.199.539.047.251.05.481.011.689-.065.347-.247.548-.546.604-.2.037-.363.013-.487-.072a.55.55 0 0 1-.23-.367l.261-.049zm.313-.494a.45.45 0 0 0 .26-.153c.073-.084.093-.21.062-.378-.028-.151-.087-.256-.178-.316a.403.403 0 0 0-.31-.057.385.385 0 0 0-.277.184.503.503 0 0 0-.048.359.498.498 0 0 0 .158.301c.08.066.19.086.333.06zm-24.047-24.328a1.154 1.154 0 0 1-.578-.032 1.019 1.019 0 0 1-.692-.813 1.061 1.061 0 0 1 .038-.56c.064-.178.17-.328.317-.449.148-.12.324-.2.527-.238.153-.028.299-.029.438-.002.138.026.262.08.37.161l-.112.164a.834.834 0 0 0-.654-.13.908.908 0 0 0-.422.194.848.848 0 0 0-.257.364.872.872 0 0 0-.03.456.83.83 0 0 0 .563.66c.147.05.302.059.464.029a.821.821 0 0 0 .562-.36l.164.112a.91.91 0 0 1-.29.288c-.12.075-.256.127-.408.156zm1.138-1.517a.515.515 0 0 1 .174-.275.77.77 0 0 1 .346-.147l.038.203-.05.006a.504.504 0 0 0-.354.221c-.074.117-.094.266-.06.446l.147.787-.209.039-.288-1.545.2-.037.056.302zm2.387.108l-1.293.241a.565.565 0 0 0 .258.356c.13.077.28.1.45.068a.597.597 0 0 0 .435-.291l.143.113a.678.678 0 0 1-.223.237.873.873 0 0 1-.326.127.881.881 0 0 1-.441-.021.761.761 0 0 1-.338-.228.818.818 0 0 1-.178-.386.855.855 0 0 1 .021-.424.738.738 0 0 1 .587-.501.75.75 0 0 1 .404.028.71.71 0 0 1 .319.229.838.838 0 0 1 .172.387l.01.065zm-.871-.53a.533.533 0 0 0-.35.214.565.565 0 0 0-.1.402l1.095-.205a.562.562 0 0 0-.242-.338.532.532 0 0 0-.403-.073zm2.433-1.284l.407 2.179-.2.037-.057-.305a.645.645 0 0 1-.205.284.729.729 0 0 1-.331.147.805.805 0 0 1-.413-.026.73.73 0 0 1-.328-.228.84.84 0 0 1-.176-.389.839.839 0 0 1 .024-.427.709.709 0 0 1 .224-.328.802.802 0 0 1 .375-.173.73.73 0 0 1 .353.016.64.64 0 0 1 .292.18l-.174-.928.209-.039zm-.403 2.154a.59.59 0 0 0 .277-.128.537.537 0 0 0 .165-.253.646.646 0 0 0 .018-.328.644.644 0 0 0-.135-.3.57.57 0 0 0-.55-.195.59.59 0 0 0-.282.131.547.547 0 0 0-.166.25.67.67 0 0 0-.015.328.67.67 0 0 0 .132.301.57.57 0 0 0 .245.176.621.621 0 0 0 .31.018zm1.102-1.628l.209-.039.288 1.544-.209.039-.288-1.544zm.043-.358a.154.154 0 0 1-.117-.023.148.148 0 0 1-.04-.209.149.149 0 0 1 .101-.064.154.154 0 0 1 .117.023.136.136 0 0 1 .063.092.15.15 0 0 1-.024.117.15.15 0 0 1-.1.064zm1.83 1.509a.418.418 0 0 1-.132.11.628.628 0 0 1-.174.06c-.145.027-.264.009-.356-.055a.457.457 0 0 1-.18-.31l-.174-.934-.276.052-.033-.177.276-.051-.063-.338.208-.039.063.338.47-.088.033.176-.47.088.172.922c.018.092.053.159.107.199a.277.277 0 0 0 .213.033.376.376 0 0 0 .12-.043.323.323 0 0 0 .095-.079l.1.136zm2.106-.277a1.154 1.154 0 0 1-.578-.032c-.179-.06-.33-.16-.454-.301a1.082 1.082 0 0 1-.238-.512 1.061 1.061 0 0 1 .038-.56c.064-.178.17-.328.317-.449.148-.12.324-.2.527-.238a1.17 1.17 0 0 1 .437-.002c.14.026.263.08.37.161l-.111.164a.834.834 0 0 0-.654-.13.907.907 0 0 0-.422.194.847.847 0 0 0-.258.364.873.873 0 0 0-.03.456.834.834 0 0 0 .564.66c.147.05.302.06.464.029a.822.822 0 0 0 .562-.36l.164.112a.91.91 0 0 1-.29.288c-.12.075-.256.127-.408.156zm1.397-1.89c.202-.038.366-.016.493.066.126.08.208.219.244.416l.18.958-.2.037-.046-.241a.484.484 0 0 1-.173.227.733.733 0 0 1-.31.128.649.649 0 0 1-.434-.047.404.404 0 0 1-.214-.297.405.405 0 0 1 .082-.344c.08-.098.225-.166.432-.205l.49-.092-.017-.094c-.025-.133-.08-.227-.168-.281-.087-.057-.203-.072-.345-.045a.816.816 0 0 0-.48.278l-.123-.138a.837.837 0 0 1 .253-.206c.103-.057.215-.097.336-.12zm.19 1.42a.571.571 0 0 0 .287-.135.502.502 0 0 0 .144-.27l-.047-.253-.485.09c-.264.05-.379.166-.345.35a.26.26 0 0 0 .143.196.484.484 0 0 0 .302.022zm1.26-1.366a.518.518 0 0 1 .174-.275.77.77 0 0 1 .346-.147l.038.203-.05.006a.504.504 0 0 0-.354.221c-.074.117-.094.266-.06.446l.147.787-.209.039-.288-1.545.2-.037.056.302zm2.177-1.375l.406 2.179-.2.037-.056-.305a.645.645 0 0 1-.205.284.728.728 0 0 1-.332.147.805.805 0 0 1-.412-.026.73.73 0 0 1-.328-.228.84.84 0 0 1-.176-.389.839.839 0 0 1 .024-.427.708.708 0 0 1 .224-.328.801.801 0 0 1 .375-.173.719.719 0 0 1 .353.016.64.64 0 0 1 .291.18l-.173-.928.209-.039zm-.404 2.154c.108-.02.2-.063.277-.128a.538.538 0 0 0 .166-.253.648.648 0 0 0 .018-.328.645.645 0 0 0-.135-.3.57.57 0 0 0-.55-.195.59.59 0 0 0-.283.131.547.547 0 0 0-.166.25.67.67 0 0 0-.014.328.67.67 0 0 0 .132.301c.068.082.15.141.245.176a.62.62 0 0 0 .31.018z" fill="#fff"></path>
      </g>
      <path fill-rule="evenodd" clip-rule="evenodd" d="M111.14 63.309l.083 1.442 3.828 2.348.191-.1c.454-.234.931-.48 1.458-.904.883-.707 1.411-1.346 1.928-1.97.316-.384.628-.761 1.015-1.147.703-.7 1.508-1.328 2.188-1.859.59-.46 1.085-.847 1.335-1.142a.442.442 0 0 0-.043-.617l-.102-.092a.45.45 0 0 0-.593.002l-3.676 2.567-.122-.191 4.234-3.958a.44.44 0 0 0-.064-.625l-.219-.178a.449.449 0 0 0-.613.049l-4.482 3.936-.144-.138c-.032-.018.724-.867 1.64-1.895 1.058-1.189 2.329-2.617 2.842-3.276a.438.438 0 0 0-.098-.633l-.29-.2a.448.448 0 0 0-.588.07l-4.815 5.048-.108-.131c-.044-.023.972-1.455 1.914-2.782.519-.732 1.015-1.432 1.299-1.847a.44.44 0 0 0-.157-.638l-.22-.12a.45.45 0 0 0-.572.127l-4.099 5.287s-.243.257-.607.455c-.231-.313-.285-.916-.34-1.526-.047-.526-.094-1.057-.257-1.408-.421-.91-2.323-2.228-1.527-.318.596 1.433.323 2.511.094 3.417a6.856 6.856 0 0 0-.181.86c-.131 1.083-.132 2.087-.132 2.087zm-28.083-1.88c-2.044.008-4.876.013-4.876.013s1.536 3.3 6.182 3.571c4.646.272 3.309-2.73 3.309-2.73s-2.57-.86-4.615-.853z" fill="#F6B852"></path>
      <path d="M78.234 93.648l1.922 1.62s-.635 4.935 1.57 4.91c0 0-.079.782.356.905.435.124 1.84-1.589 1.84-1.589s1.725-.441 2.226-2.005c.5-1.563.977-5.329.496-5.669-.48-.34-5.502-1.018-5.502-1.018s-2.118.024-2.908 2.846z" fill="#F6B852"></path>
      <rect x="113.393" y="51.019" width="5.412" height="12.992" rx=".962" transform="rotate(-8.88 113.393 51.019)" fill="#000"></rect>
      <rect x="111.89" y="51.261" width="6.255" height="12.992" rx=".962" transform="rotate(-8.88 111.89 51.261)" fill="#3375BB"></rect>
      <mask id="c" maskUnits="userSpaceOnUse" x="57" y="61" width="61" height="35">
        <path d="M80.759 90.954l1.416-3.059-3.44 7.428s-3.844-2.225-8.7-2.63c-9.341 0-12.784-3.334-13.01-7.535-.24-4.465 3.669-10.838 3.669-10.838s6.12-9.05 11.79-11.694c1.163-.543 3.985-.996 5.695-1.183.525-.057.211.147.391.493.188.36.76.896 1.156 1.295.825.833 2.449 1.463 3.321 1.592.665.098 1.95.25 2.568.168.618-.083 1.29-.362 1.47-.528.18-.166.447-.373.585-.692.139-.32.132-.228.132-.523 0-.294-.016-.25-.044-.39-.03-.141-.03-.225-.046-.298-.075-.32-.042-.277-.042-.277 3.348 1.01 5.043 1.385 6.263 2.855l9.32 6.536 6.376-8.316 8.228 5.521s-7.285 13.565-12.565 15.065c-4.253 1.208-8.56-2.55-10.076-4.056l1.8 9.131c.288 1.577-1.093 2.174-2.324 2.118l-13.933-.183z" fill="#3375BB"></path>
      </mask>
      <g mask="url(#c)">
        <path d="M80.759 90.954l1.416-3.059-3.44 7.428s-3.844-2.225-8.7-2.63c-9.341 0-12.784-3.334-13.01-7.535-.24-4.465 3.669-10.838 3.669-10.838s6.12-9.05 11.79-11.694c1.163-.543 3.985-.996 5.695-1.183.525-.057.211.147.391.493.188.36.76.896 1.156 1.295.825.833 2.449 1.463 3.321 1.592.665.098 1.95.25 2.568.168.618-.083 1.29-.362 1.47-.528.18-.166.447-.373.585-.692.139-.32.132-.228.132-.523 0-.294-.016-.25-.044-.39-.03-.141-.03-.225-.046-.298-.075-.32-.042-.277-.042-.277 3.348 1.01 5.043 1.385 6.263 2.855l9.32 6.536 6.376-8.316 8.228 5.521s-7.285 13.565-12.565 15.065c-4.253 1.208-8.56-2.55-10.076-4.056l1.8 9.131c.288 1.577-1.093 2.174-2.324 2.118l-13.933-.183z" fill="#3375BB"></path>
      </g>
      <path opacity=".201" fill-rule="evenodd" clip-rule="evenodd" d="M95.188 79.892l-1.114-4.4 3.008 6.013-1.894-1.613z" fill="#000"></path>
      <path opacity=".201" d="M81.568 88.646L68.82 81.969l6.697-8.762" stroke="#000" stroke-width=".836"></path>
      <path d="M87.52 54.433c-.108.287-.111.61-.01.9.101.289.299.52.55.643a.91.91 0 0 0 .786.01 1.1 1.1 0 0 0 .562-.628c.224-.596-.32-.8-.842-1.056s-.823-.465-1.047.131z" fill="#0D0B6D"></path>
    </g>
    <defs>
      <linearGradient id="paint0_linear" x1="99.007" y1="146.377" x2="120.064" y2="178.961" gradientUnits="userSpaceOnUse">
        <stop stop-color="#fff"></stop>
        <stop offset="1" stop-color="#fff" stop-opacity="0"></stop>
      </linearGradient>
      <linearGradient id="paint1_linear" x1="91.085" y1="134.578" x2="122.834" y2="183.704" gradientUnits="userSpaceOnUse">
        <stop stop-color="#fff"></stop>
        <stop offset="1" stop-color="#fff" stop-opacity="0"></stop>
      </linearGradient>
      <linearGradient id="paint2_linear" x1="83.151" y1="122.781" x2="125.752" y2="188.7" gradientUnits="userSpaceOnUse">
        <stop stop-color="#fff"></stop>
        <stop offset="1" stop-color="#fff" stop-opacity="0"></stop>
      </linearGradient>
      <linearGradient id="paint3_linear" x1="73.801" y1="108.833" x2="128.875" y2="194.051" gradientUnits="userSpaceOnUse">
        <stop stop-color="#fff"></stop>
        <stop offset="1" stop-color="#fff" stop-opacity="0"></stop>
      </linearGradient>
      <linearGradient id="paint4_linear" x1="64.198" y1="94.53" x2="132.23" y2="199.8" gradientUnits="userSpaceOnUse">
        <stop stop-color="#fff"></stop>
        <stop offset="1" stop-color="#fff" stop-opacity="0"></stop>
      </linearGradient>
      <linearGradient id="paint5_linear" x1="54.596" y1="80.227" x2="135.586" y2="205.548" gradientUnits="userSpaceOnUse">
        <stop stop-color="#fff"></stop>
        <stop offset="1" stop-color="#fff" stop-opacity="0"></stop>
      </linearGradient>
      <linearGradient id="paint6_linear" x1="-6.176" y1="159.227" x2="14.882" y2="191.81" gradientUnits="userSpaceOnUse">
        <stop stop-color="#fff"></stop>
        <stop offset="1" stop-color="#fff" stop-opacity="0"></stop>
      </linearGradient>
      <linearGradient id="paint7_linear" x1="-14.098" y1="147.427" x2="17.65" y2="196.553" gradientUnits="userSpaceOnUse">
        <stop stop-color="#fff"></stop>
        <stop offset="1" stop-color="#fff" stop-opacity="0"></stop>
      </linearGradient>
      <linearGradient id="paint8_linear" x1="-22.033" y1="135.63" x2="20.568" y2="201.549" gradientUnits="userSpaceOnUse">
        <stop stop-color="#fff"></stop>
        <stop offset="1" stop-color="#fff" stop-opacity="0"></stop>
      </linearGradient>
      <linearGradient id="paint9_linear" x1="-31.383" y1="121.682" x2="23.691" y2="206.9" gradientUnits="userSpaceOnUse">
        <stop stop-color="#fff"></stop>
        <stop offset="1" stop-color="#fff" stop-opacity="0"></stop>
      </linearGradient>
      <linearGradient id="paint10_linear" x1="-40.984" y1="107.379" x2="27.048" y2="212.649" gradientUnits="userSpaceOnUse">
        <stop stop-color="#fff"></stop>
        <stop offset="1" stop-color="#fff" stop-opacity="0"></stop>
      </linearGradient>
      <linearGradient id="paint11_linear" x1="-50.587" y1="93.077" x2="30.404" y2="218.397" gradientUnits="userSpaceOnUse">
        <stop stop-color="#fff"></stop>
        <stop offset="1" stop-color="#fff" stop-opacity="0"></stop>
      </linearGradient>
      <linearGradient id="paint12_linear" x1="108.796" y1="135.995" x2="141.69" y2="156.563" gradientUnits="userSpaceOnUse">
        <stop stop-color="#fff"></stop>
        <stop offset="1" stop-color="#fff" stop-opacity="0"></stop>
      </linearGradient>
      <linearGradient id="paint13_linear" x1="-5.365" y1="177.63" x2="61.183" y2="219.24" gradientUnits="userSpaceOnUse">
        <stop stop-color="#fff"></stop>
        <stop offset="1" stop-color="#fff" stop-opacity="0"></stop>
      </linearGradient>
      <linearGradient id="paint14_linear" x1="-19.75" y1="168.967" x2="66.282" y2="222.76" gradientUnits="userSpaceOnUse">
        <stop stop-color="#fff"></stop>
        <stop offset="1" stop-color="#fff" stop-opacity="0"></stop>
      </linearGradient>
      <linearGradient id="paint15_linear" x1="-34.515" y1="160.092" x2="71.76" y2="226.541" gradientUnits="userSpaceOnUse">
        <stop stop-color="#fff"></stop>
        <stop offset="1" stop-color="#fff" stop-opacity="0"></stop>
      </linearGradient>
      <linearGradient id="paint16_linear" x1="-49.279" y1="151.216" x2="77.239" y2="230.322" gradientUnits="userSpaceOnUse">
        <stop stop-color="#fff"></stop>
        <stop offset="1" stop-color="#fff" stop-opacity="0"></stop>
      </linearGradient>
      <clipPath id="clip0">
        <path fill="#fff" d="M.001 0h180v180h-180z"></path>
      </clipPath>
      <clipPath id="clip1">
        <path fill="#fff" d="M114.188 0H180v86.625h-65.812z"></path>
      </clipPath>
      <clipPath id="clip2">
        <path transform="rotate(14.537 26.999 79)" fill="#fff" d="M26.999 79h95.604v59.752H26.999z"></path>
      </clipPath>
      <clipPath id="clip3">
        <path transform="rotate(14.537 32.44 86.584)" fill="#fff" d="M32.44 86.584h11.95v7.469H32.44z"></path>
      </clipPath>
      <clipPath id="clip4">
        <path transform="rotate(-10.574 15.001 105.544)" fill="#fff" d="M15.001 105.544h95.604v59.752H15.001z"></path>
      </clipPath>
      <clipPath id="clip5">
        <path transform="rotate(-10.574 23.748 113.174)" fill="#fff" d="M23.748 113.174h17.788v5.929H23.748z"></path>
      </clipPath>
    </defs>
  </symbol></defs>
<use xlink:href="#buy" alt="Illustration that shows a man holding phone while buying cryptocurrencies with credit card"></use>
</svg>